<mxfile host="app.diagrams.net" modified="2023-05-11T03:42:26.253Z" agent="Mozilla/5.0 (Macintosh; Intel Mac OS X 10_15_7) AppleWebKit/537.36 (KHTML, like Gecko) Chrome/112.0.0.0 Safari/537.36" version="21.2.1" etag="u5vOY8S47qCM_5_d-6Aq" type="github">
  <diagram name="Page-1" id="Slj6A78CYoszqfQmfJIg">
    <mxGraphModel>
      <root>
        <mxCell id="0" />
        <mxCell id="1" parent="0" />
      </root>
    </mxGraphModel>
  </diagram>
</mxfile>
